# xmcd
#
# Track frame offsets: 
#        150
#        18008
#        45175
#        71140
#        95533
#        115993
#        142587
#        167287
#        196530
#        221615
#        246003
#        263903
#
# Disc length: 3878 seconds
#
# Revision: 0
# Processed by: cddbd v1.5.2PL0 Copyright (c) Steve Scherf et al.
# Submitted via: ExactAudioCopy v1.0b3
#
DISCID=900f240c
DTITLE=Truong Vu - Ly Ruou Dang Cay
DYEAR=2009
DGENRE=
TTITLE0=Mua thu la bay
TTITLE1=Ly ruou dang cay
TTITLE2=Truong Vu, Phi Nhung - Tinh nguoi vien xu
TTITLE3=Doi la gi
TTITLE4=Nho que noi xu nguoi
TTITLE5=Truong Vu, Phi Nhung - Chuyen nguoi len xe hoa
TTITLE6=Trong hai chon mot
TTITLE7=Nguoi phu quet duong
TTITLE8=Truong Vu, Le Chi - Thay long
TTITLE9=Long Me tha huong
TTITLE10=hoa tau - Mua thu la bay
TTITLE11=hoa tau - Ly ruou dang cay
EXTD=
EXTT0=
EXTT1=
EXTT2=
EXTT3=
EXTT4=
EXTT5=
EXTT6=
EXTT7=
EXTT8=
EXTT9=
EXTT10=
EXTT11=
PLAYORDER=
